<svg xmlns="http://www.w3.org/2000/svg" width="20" height="20" viewBox="0 0 20 20" fill="none">
    <g clip-path="url(#clip0_573_693)">
      <path d="M14.168 1.66663H5.83464C3.53345 1.66663 1.66797 3.53211 1.66797 5.83329V14.1666C1.66797 16.4678 3.53345 18.3333 5.83464 18.3333H14.168C16.4692 18.3333 18.3346 16.4678 18.3346 14.1666V5.83329C18.3346 3.53211 16.4692 1.66663 14.168 1.66663Z" stroke="black" stroke-width="2" stroke-linecap="round" stroke-linejoin="round"/>
      <path d="M14.5837 5.41663H14.5921M13.3337 9.47496C13.4366 10.1685 13.3181 10.8768 12.9952 11.4991C12.6723 12.1215 12.1614 12.6261 11.5351 12.9414C10.9088 13.2566 10.1991 13.3663 9.5069 13.2549C8.81468 13.1435 8.17521 12.8167 7.67944 12.3209C7.18367 11.8252 6.85685 11.1857 6.74546 10.4935C6.63408 9.80125 6.74379 9.09154 7.05901 8.46527C7.37423 7.839 7.8789 7.32808 8.50123 7.00516C9.12356 6.68224 9.83187 6.56378 10.5254 6.66663C11.2328 6.77153 11.8878 7.10118 12.3935 7.60688C12.8992 8.11258 13.2288 8.76752 13.3337 9.47496Z" stroke="black" stroke-width="2" stroke-linecap="round" stroke-linejoin="round"/>
    </g>
    <defs>
      <clipPath id="clip0_573_693">
        <rect width="20" height="20" fill="white"/>
      </clipPath>
    </defs>
  </svg>